<mxfile host="app.diagrams.net" modified="2022-03-15T01:39:27.589Z" agent="5.0 (Windows NT 10.0; Win64; x64) AppleWebKit/537.36 (KHTML, like Gecko) Chrome/99.0.4844.51 Safari/537.36" etag="u178fwgFTaT8SPbKqRf6" version="17.1.2" type="github">
  <diagram id="6BhsCVyJqnDGbrCzc9n-" name="Page-1">
    <mxGraphModel dx="1384" dy="900" grid="1" gridSize="10" guides="1" tooltips="1" connect="1" arrows="1" fold="1" page="1" pageScale="1" pageWidth="850" pageHeight="1100" background="none" math="0" shadow="1">
      <root>
        <mxCell id="0" />
        <mxCell id="1" parent="0" />
        <mxCell id="_y-lPR5SI5nx0vsH4OLY-1" value="Matrix select options (4 fields)" style="rounded=0;whiteSpace=wrap;html=1;" vertex="1" parent="1">
          <mxGeometry x="290" y="136" width="240" height="60" as="geometry" />
        </mxCell>
        <mxCell id="_y-lPR5SI5nx0vsH4OLY-3" value="amelia system" style="ellipse;shape=cloud;whiteSpace=wrap;html=1;" vertex="1" parent="1">
          <mxGeometry x="110" y="25" width="120" height="80" as="geometry" />
        </mxCell>
        <mxCell id="_y-lPR5SI5nx0vsH4OLY-4" value="DB" style="shape=cylinder3;whiteSpace=wrap;html=1;boundedLbl=1;backgroundOutline=1;size=15;" vertex="1" parent="1">
          <mxGeometry x="610" y="25" width="60" height="80" as="geometry" />
        </mxCell>
        <mxCell id="_y-lPR5SI5nx0vsH4OLY-8" value="" style="endArrow=classic;startArrow=classic;html=1;rounded=0;entryX=0;entryY=0.5;entryDx=0;entryDy=0;entryPerimeter=0;exitX=0.875;exitY=0.5;exitDx=0;exitDy=0;exitPerimeter=0;" edge="1" parent="1" source="_y-lPR5SI5nx0vsH4OLY-3" target="_y-lPR5SI5nx0vsH4OLY-4">
          <mxGeometry width="50" height="50" relative="1" as="geometry">
            <mxPoint x="390" y="315" as="sourcePoint" />
            <mxPoint x="440" y="265" as="targetPoint" />
          </mxGeometry>
        </mxCell>
        <mxCell id="_y-lPR5SI5nx0vsH4OLY-9" value="&lt;b&gt;Show Available CP list&lt;/b&gt;&lt;br&gt;(&lt;span style=&quot;font-size: 11px ; background-color: rgb(255 , 255 , 255)&quot;&gt;All CPs who are matched with matrix conditions&lt;/span&gt;)" style="whiteSpace=wrap;html=1;aspect=fixed;" vertex="1" parent="1">
          <mxGeometry x="70" y="540" width="160" height="160" as="geometry" />
        </mxCell>
        <mxCell id="_y-lPR5SI5nx0vsH4OLY-24" value="&lt;b&gt;Show Available Date&amp;amp;Time&lt;/b&gt;&lt;br&gt;(Merge all Date/Time of CPs in CP list)" style="whiteSpace=wrap;html=1;aspect=fixed;" vertex="1" parent="1">
          <mxGeometry x="630" y="540" width="160" height="160" as="geometry" />
        </mxCell>
        <mxCell id="_y-lPR5SI5nx0vsH4OLY-29" value="Customer" style="shape=umlActor;verticalLabelPosition=bottom;verticalAlign=top;html=1;outlineConnect=0;" vertex="1" parent="1">
          <mxGeometry x="425" y="627" width="30" height="60" as="geometry" />
        </mxCell>
        <mxCell id="_y-lPR5SI5nx0vsH4OLY-30" value="Select One CP in a list" style="rounded=1;whiteSpace=wrap;html=1;" vertex="1" parent="1">
          <mxGeometry x="81.25" y="787" width="137.5" height="60" as="geometry" />
        </mxCell>
        <mxCell id="_y-lPR5SI5nx0vsH4OLY-32" value="Select a Date/Time" style="rounded=1;whiteSpace=wrap;html=1;" vertex="1" parent="1">
          <mxGeometry x="650" y="740" width="120" height="60" as="geometry" />
        </mxCell>
        <mxCell id="_y-lPR5SI5nx0vsH4OLY-36" value="" style="endArrow=classic;html=1;rounded=0;elbow=vertical;entryX=0.5;entryY=0;entryDx=0;entryDy=0;exitX=0.5;exitY=1;exitDx=0;exitDy=0;" edge="1" parent="1" source="_y-lPR5SI5nx0vsH4OLY-24" target="_y-lPR5SI5nx0vsH4OLY-32">
          <mxGeometry width="50" height="50" relative="1" as="geometry">
            <mxPoint x="500" y="707" as="sourcePoint" />
            <mxPoint x="550" y="657" as="targetPoint" />
          </mxGeometry>
        </mxCell>
        <mxCell id="_y-lPR5SI5nx0vsH4OLY-37" value="" style="endArrow=classic;html=1;rounded=0;elbow=vertical;entryX=0.5;entryY=0;entryDx=0;entryDy=0;" edge="1" parent="1" source="_y-lPR5SI5nx0vsH4OLY-9" target="_y-lPR5SI5nx0vsH4OLY-30">
          <mxGeometry width="50" height="50" relative="1" as="geometry">
            <mxPoint x="420" y="577" as="sourcePoint" />
            <mxPoint x="470" y="527" as="targetPoint" />
          </mxGeometry>
        </mxCell>
        <mxCell id="_y-lPR5SI5nx0vsH4OLY-39" value="" style="endArrow=none;dashed=1;html=1;rounded=0;entryX=0;entryY=0.3333333333333333;entryDx=0;entryDy=0;entryPerimeter=0;exitX=1;exitY=0.5;exitDx=0;exitDy=0;edgeStyle=elbowEdgeStyle;" edge="1" parent="1" source="_y-lPR5SI5nx0vsH4OLY-30" target="_y-lPR5SI5nx0vsH4OLY-29">
          <mxGeometry width="50" height="50" relative="1" as="geometry">
            <mxPoint x="220" y="697" as="sourcePoint" />
            <mxPoint x="370" y="617" as="targetPoint" />
          </mxGeometry>
        </mxCell>
        <mxCell id="_y-lPR5SI5nx0vsH4OLY-40" value="" style="endArrow=none;dashed=1;html=1;rounded=0;exitX=1;exitY=0.3333333333333333;exitDx=0;exitDy=0;exitPerimeter=0;entryX=0;entryY=0.5;entryDx=0;entryDy=0;edgeStyle=elbowEdgeStyle;" edge="1" parent="1" source="_y-lPR5SI5nx0vsH4OLY-29" target="_y-lPR5SI5nx0vsH4OLY-32">
          <mxGeometry width="50" height="50" relative="1" as="geometry">
            <mxPoint x="420" y="577" as="sourcePoint" />
            <mxPoint x="470" y="527" as="targetPoint" />
          </mxGeometry>
        </mxCell>
        <mxCell id="_y-lPR5SI5nx0vsH4OLY-53" style="edgeStyle=orthogonalEdgeStyle;rounded=0;orthogonalLoop=1;jettySize=auto;html=1;exitX=0.5;exitY=1;exitDx=0;exitDy=0;elbow=vertical;" edge="1" parent="1" source="_y-lPR5SI5nx0vsH4OLY-42" target="_y-lPR5SI5nx0vsH4OLY-52">
          <mxGeometry relative="1" as="geometry" />
        </mxCell>
        <mxCell id="_y-lPR5SI5nx0vsH4OLY-42" value="Show this CP&#39;s Date/Time" style="rounded=0;whiteSpace=wrap;html=1;" vertex="1" parent="1">
          <mxGeometry x="90" y="917" width="120" height="60" as="geometry" />
        </mxCell>
        <mxCell id="_y-lPR5SI5nx0vsH4OLY-51" style="edgeStyle=orthogonalEdgeStyle;rounded=0;orthogonalLoop=1;jettySize=auto;html=1;exitX=0.5;exitY=1;exitDx=0;exitDy=0;entryX=0.75;entryY=0;entryDx=0;entryDy=0;elbow=vertical;" edge="1" parent="1" source="_y-lPR5SI5nx0vsH4OLY-43" target="_y-lPR5SI5nx0vsH4OLY-30">
          <mxGeometry relative="1" as="geometry" />
        </mxCell>
        <mxCell id="_y-lPR5SI5nx0vsH4OLY-43" value="&lt;b&gt;Show Available CP list&lt;/b&gt;&lt;br&gt;(By Matrix Options and Date/Time select)" style="whiteSpace=wrap;html=1;aspect=fixed;" vertex="1" parent="1">
          <mxGeometry x="640" y="847" width="140" height="140" as="geometry" />
        </mxCell>
        <mxCell id="_y-lPR5SI5nx0vsH4OLY-44" value="" style="endArrow=classic;html=1;rounded=0;elbow=vertical;exitX=0.5;exitY=1;exitDx=0;exitDy=0;entryX=0.5;entryY=0;entryDx=0;entryDy=0;" edge="1" parent="1" source="_y-lPR5SI5nx0vsH4OLY-30" target="_y-lPR5SI5nx0vsH4OLY-42">
          <mxGeometry width="50" height="50" relative="1" as="geometry">
            <mxPoint x="420" y="857" as="sourcePoint" />
            <mxPoint x="470" y="807" as="targetPoint" />
          </mxGeometry>
        </mxCell>
        <mxCell id="_y-lPR5SI5nx0vsH4OLY-45" value="" style="endArrow=classic;html=1;rounded=0;elbow=vertical;exitX=0.5;exitY=1;exitDx=0;exitDy=0;entryX=0.5;entryY=0;entryDx=0;entryDy=0;" edge="1" parent="1" source="_y-lPR5SI5nx0vsH4OLY-32" target="_y-lPR5SI5nx0vsH4OLY-43">
          <mxGeometry width="50" height="50" relative="1" as="geometry">
            <mxPoint x="420" y="857" as="sourcePoint" />
            <mxPoint x="710" y="767" as="targetPoint" />
          </mxGeometry>
        </mxCell>
        <mxCell id="_y-lPR5SI5nx0vsH4OLY-52" value="Click Continue Button" style="rounded=1;whiteSpace=wrap;html=1;" vertex="1" parent="1">
          <mxGeometry x="75" y="1027" width="150" height="60" as="geometry" />
        </mxCell>
        <mxCell id="_y-lPR5SI5nx0vsH4OLY-60" style="edgeStyle=orthogonalEdgeStyle;rounded=0;orthogonalLoop=1;jettySize=auto;html=1;exitX=0.5;exitY=1;exitDx=0;exitDy=0;entryX=0.5;entryY=0;entryDx=0;entryDy=0;elbow=vertical;" edge="1" parent="1" source="_y-lPR5SI5nx0vsH4OLY-54" target="_y-lPR5SI5nx0vsH4OLY-57">
          <mxGeometry relative="1" as="geometry" />
        </mxCell>
        <mxCell id="_y-lPR5SI5nx0vsH4OLY-54" value="Select Options" style="rounded=1;whiteSpace=wrap;html=1;" vertex="1" parent="1">
          <mxGeometry x="355" y="240" width="140" height="60" as="geometry" />
        </mxCell>
        <mxCell id="_y-lPR5SI5nx0vsH4OLY-59" style="edgeStyle=orthogonalEdgeStyle;rounded=0;orthogonalLoop=1;jettySize=auto;html=1;exitX=1;exitY=0.5;exitDx=0;exitDy=0;entryX=0.5;entryY=1;entryDx=0;entryDy=0;elbow=vertical;" edge="1" parent="1" source="_y-lPR5SI5nx0vsH4OLY-57" target="_y-lPR5SI5nx0vsH4OLY-79">
          <mxGeometry relative="1" as="geometry" />
        </mxCell>
        <mxCell id="_y-lPR5SI5nx0vsH4OLY-78" value="&lt;b&gt;Yes&lt;/b&gt;" style="edgeLabel;html=1;align=center;verticalAlign=middle;resizable=0;points=[];fontSize=12;" vertex="1" connectable="0" parent="_y-lPR5SI5nx0vsH4OLY-59">
          <mxGeometry x="-0.8252" y="-1" relative="1" as="geometry">
            <mxPoint as="offset" />
          </mxGeometry>
        </mxCell>
        <mxCell id="_y-lPR5SI5nx0vsH4OLY-57" value="Is there any blank options" style="rhombus;whiteSpace=wrap;html=1;" vertex="1" parent="1">
          <mxGeometry x="334" y="336" width="180" height="90" as="geometry" />
        </mxCell>
        <mxCell id="_y-lPR5SI5nx0vsH4OLY-69" value="" style="endArrow=none;html=1;rounded=0;entryX=0;entryY=0.5;entryDx=0;entryDy=0;exitX=0.5;exitY=0;exitDx=0;exitDy=0;edgeStyle=elbowEdgeStyle;elbow=vertical;" edge="1" parent="1" source="_y-lPR5SI5nx0vsH4OLY-9" target="_y-lPR5SI5nx0vsH4OLY-57">
          <mxGeometry width="50" height="50" relative="1" as="geometry">
            <mxPoint x="400" y="750" as="sourcePoint" />
            <mxPoint x="450" y="700" as="targetPoint" />
          </mxGeometry>
        </mxCell>
        <mxCell id="_y-lPR5SI5nx0vsH4OLY-70" value="" style="endArrow=none;html=1;rounded=0;elbow=vertical;entryX=0.5;entryY=0;entryDx=0;entryDy=0;exitX=0;exitY=0.5;exitDx=0;exitDy=0;edgeStyle=elbowEdgeStyle;" edge="1" parent="1" source="_y-lPR5SI5nx0vsH4OLY-57" target="_y-lPR5SI5nx0vsH4OLY-24">
          <mxGeometry width="50" height="50" relative="1" as="geometry">
            <mxPoint x="400" y="750" as="sourcePoint" />
            <mxPoint x="450" y="700" as="targetPoint" />
          </mxGeometry>
        </mxCell>
        <mxCell id="_y-lPR5SI5nx0vsH4OLY-77" value="&lt;b&gt;&lt;font style=&quot;font-size: 12px&quot;&gt;No&lt;/font&gt;&lt;/b&gt;" style="edgeLabel;html=1;align=center;verticalAlign=middle;resizable=0;points=[];" vertex="1" connectable="0" parent="_y-lPR5SI5nx0vsH4OLY-70">
          <mxGeometry x="-0.8393" relative="1" as="geometry">
            <mxPoint as="offset" />
          </mxGeometry>
        </mxCell>
        <mxCell id="_y-lPR5SI5nx0vsH4OLY-71" value="" style="endArrow=classic;html=1;rounded=0;entryX=0.5;entryY=0;entryDx=0;entryDy=0;exitX=0.563;exitY=0.997;exitDx=0;exitDy=0;exitPerimeter=0;" edge="1" parent="1" source="_y-lPR5SI5nx0vsH4OLY-1" target="_y-lPR5SI5nx0vsH4OLY-54">
          <mxGeometry width="50" height="50" relative="1" as="geometry">
            <mxPoint x="400" y="350" as="sourcePoint" />
            <mxPoint x="450" y="300" as="targetPoint" />
          </mxGeometry>
        </mxCell>
        <mxCell id="_y-lPR5SI5nx0vsH4OLY-73" value="" style="endArrow=none;dashed=1;html=1;rounded=0;exitX=0.5;exitY=0;exitDx=0;exitDy=0;exitPerimeter=0;entryX=0;entryY=0.5;entryDx=0;entryDy=0;edgeStyle=elbowEdgeStyle;" edge="1" parent="1" source="_y-lPR5SI5nx0vsH4OLY-29" target="_y-lPR5SI5nx0vsH4OLY-54">
          <mxGeometry width="50" height="50" relative="1" as="geometry">
            <mxPoint x="400" y="450" as="sourcePoint" />
            <mxPoint x="450" y="400" as="targetPoint" />
            <Array as="points">
              <mxPoint x="290" y="450" />
            </Array>
          </mxGeometry>
        </mxCell>
        <mxCell id="_y-lPR5SI5nx0vsH4OLY-79" value="Alert &quot;Select All mandatory fields&quot;" style="rounded=0;whiteSpace=wrap;html=1;fontSize=12;" vertex="1" parent="1">
          <mxGeometry x="600" y="290" width="120" height="60" as="geometry" />
        </mxCell>
        <mxCell id="_y-lPR5SI5nx0vsH4OLY-80" value="" style="endArrow=classic;html=1;rounded=0;fontSize=12;elbow=vertical;entryX=1;entryY=0.5;entryDx=0;entryDy=0;exitX=0.5;exitY=0;exitDx=0;exitDy=0;edgeStyle=orthogonalEdgeStyle;" edge="1" parent="1" source="_y-lPR5SI5nx0vsH4OLY-79" target="_y-lPR5SI5nx0vsH4OLY-54">
          <mxGeometry width="50" height="50" relative="1" as="geometry">
            <mxPoint x="400" y="350" as="sourcePoint" />
            <mxPoint x="450" y="300" as="targetPoint" />
          </mxGeometry>
        </mxCell>
      </root>
    </mxGraphModel>
  </diagram>
</mxfile>
